<svg width="353" height="103" viewBox="0 0 353 103" fill="none" xmlns="http://www.w3.org/2000/svg">
<g filter="url(#filter0_d_25368_612)">
<rect x="15.5144" y="11.3027" width="322.486" height="72.3792" rx="20" fill="#F7F7F7"/>
</g>
<path d="M98.8359 51.1929C98.7214 52.4064 98.2734 53.3543 97.4922 54.0366C96.7109 54.7137 95.6719 55.0522 94.375 55.0522C93.4688 55.0522 92.6693 54.8387 91.9766 54.4116C91.2891 53.9793 90.7578 53.3674 90.3828 52.5757C90.0078 51.784 89.8125 50.8647 89.7969 49.8179V48.7554C89.7969 47.6825 89.987 46.7371 90.3672 45.9194C90.7474 45.1017 91.2917 44.4715 92 44.0288C92.7135 43.5861 93.5365 43.3647 94.4688 43.3647C95.724 43.3647 96.7344 43.7059 97.5 44.3882C98.2656 45.0705 98.7109 46.034 98.8359 47.2788H96.8672C96.7734 46.4611 96.5339 45.8726 96.1484 45.5132C95.7682 45.1486 95.2083 44.9663 94.4688 44.9663C93.6094 44.9663 92.9479 45.2814 92.4844 45.9116C92.026 46.5366 91.7917 47.4559 91.7812 48.6694V49.6772C91.7812 50.9064 92 51.8439 92.4375 52.4897C92.8802 53.1356 93.526 53.4585 94.375 53.4585C95.151 53.4585 95.7344 53.284 96.125 52.9351C96.5156 52.5861 96.763 52.0054 96.8672 51.1929H98.8359ZM100.07 50.5913C100.07 49.7632 100.234 49.0184 100.562 48.3569C100.891 47.6903 101.352 47.1799 101.945 46.8257C102.539 46.4663 103.221 46.2866 103.992 46.2866C105.133 46.2866 106.057 46.6538 106.766 47.3882C107.479 48.1226 107.865 49.0965 107.922 50.3101L107.93 50.7554C107.93 51.5887 107.768 52.3335 107.445 52.9897C107.128 53.646 106.669 54.1538 106.07 54.5132C105.477 54.8726 104.789 55.0522 104.008 55.0522C102.815 55.0522 101.859 54.6564 101.141 53.8647C100.427 53.0679 100.07 52.008 100.07 50.6851V50.5913ZM101.969 50.7554C101.969 51.6252 102.148 52.3075 102.508 52.8022C102.867 53.2918 103.367 53.5366 104.008 53.5366C104.648 53.5366 105.146 53.2866 105.5 52.7866C105.859 52.2866 106.039 51.5549 106.039 50.5913C106.039 49.7371 105.854 49.0601 105.484 48.5601C105.12 48.0601 104.622 47.8101 103.992 47.8101C103.372 47.8101 102.88 48.0575 102.516 48.5522C102.151 49.0418 101.969 49.7762 101.969 50.7554ZM111.32 46.4429L111.375 47.3257C111.969 46.633 112.781 46.2866 113.812 46.2866C114.943 46.2866 115.716 46.7189 116.133 47.5835C116.747 46.7189 117.612 46.2866 118.727 46.2866C119.659 46.2866 120.352 46.5444 120.805 47.0601C121.263 47.5757 121.497 48.3361 121.508 49.3413V54.896H119.609V49.396C119.609 48.8595 119.492 48.4663 119.258 48.2163C119.023 47.9663 118.635 47.8413 118.094 47.8413C117.661 47.8413 117.307 47.9585 117.031 48.1929C116.76 48.422 116.57 48.7241 116.461 49.0991L116.469 54.896H114.57V49.3335C114.544 48.3387 114.036 47.8413 113.047 47.8413C112.286 47.8413 111.747 48.1512 111.43 48.771V54.896H109.531V46.4429H111.32ZM130.859 50.7554C130.859 52.0627 130.562 53.1069 129.969 53.8882C129.375 54.6642 128.578 55.0522 127.578 55.0522C126.651 55.0522 125.909 54.7476 125.352 54.1382V58.146H123.453V46.4429H125.203L125.281 47.3022C125.839 46.6252 126.596 46.2866 127.555 46.2866C128.586 46.2866 129.393 46.672 129.977 47.4429C130.565 48.2085 130.859 49.2736 130.859 50.6382V50.7554ZM128.969 50.5913C128.969 49.7476 128.799 49.0783 128.461 48.5835C128.128 48.0887 127.648 47.8413 127.023 47.8413C126.247 47.8413 125.69 48.1616 125.352 48.8022V52.5522C125.695 53.2085 126.258 53.5366 127.039 53.5366C127.643 53.5366 128.115 53.2944 128.453 52.8101C128.797 52.3205 128.969 51.5809 128.969 50.5913ZM132.117 50.5913C132.117 49.7632 132.281 49.0184 132.609 48.3569C132.938 47.6903 133.398 47.1799 133.992 46.8257C134.586 46.4663 135.268 46.2866 136.039 46.2866C137.18 46.2866 138.104 46.6538 138.812 47.3882C139.526 48.1226 139.911 49.0965 139.969 50.3101L139.977 50.7554C139.977 51.5887 139.815 52.3335 139.492 52.9897C139.174 53.646 138.716 54.1538 138.117 54.5132C137.523 54.8726 136.836 55.0522 136.055 55.0522C134.862 55.0522 133.906 54.6564 133.188 53.8647C132.474 53.0679 132.117 52.008 132.117 50.6851V50.5913ZM134.016 50.7554C134.016 51.6252 134.195 52.3075 134.555 52.8022C134.914 53.2918 135.414 53.5366 136.055 53.5366C136.695 53.5366 137.193 53.2866 137.547 52.7866C137.906 52.2866 138.086 51.5549 138.086 50.5913C138.086 49.7371 137.901 49.0601 137.531 48.5601C137.167 48.0601 136.669 47.8101 136.039 47.8101C135.419 47.8101 134.927 48.0575 134.562 48.5522C134.198 49.0418 134.016 49.7762 134.016 50.7554ZM146.32 52.5991C146.32 52.2606 146.18 52.0028 145.898 51.8257C145.622 51.6486 145.161 51.4924 144.516 51.3569C143.87 51.2215 143.331 51.0496 142.898 50.8413C141.951 50.383 141.477 49.7189 141.477 48.8491C141.477 48.12 141.784 47.5106 142.398 47.021C143.013 46.5314 143.794 46.2866 144.742 46.2866C145.753 46.2866 146.568 46.5366 147.188 47.0366C147.812 47.5366 148.125 48.1851 148.125 48.9819H146.227C146.227 48.6174 146.091 48.3153 145.82 48.0757C145.549 47.8309 145.19 47.7085 144.742 47.7085C144.326 47.7085 143.984 47.8049 143.719 47.9976C143.458 48.1903 143.328 48.4481 143.328 48.771C143.328 49.0627 143.451 49.2892 143.695 49.4507C143.94 49.6121 144.435 49.7762 145.18 49.9429C145.924 50.1043 146.508 50.2996 146.93 50.5288C147.357 50.7528 147.672 51.0236 147.875 51.3413C148.083 51.659 148.188 52.0444 148.188 52.4976C148.188 53.258 147.872 53.8752 147.242 54.3491C146.612 54.8179 145.786 55.0522 144.766 55.0522C144.073 55.0522 143.456 54.9272 142.914 54.6772C142.372 54.4272 141.951 54.0835 141.648 53.646C141.346 53.2085 141.195 52.7371 141.195 52.2319H143.039C143.065 52.6799 143.234 53.0262 143.547 53.271C143.859 53.5106 144.273 53.6304 144.789 53.6304C145.289 53.6304 145.669 53.5366 145.93 53.3491C146.19 53.1564 146.32 52.9064 146.32 52.5991ZM153.57 55.0522C152.367 55.0522 151.391 54.6746 150.641 53.9194C149.896 53.159 149.523 52.1486 149.523 50.8882V50.6538C149.523 49.8101 149.685 49.0575 150.008 48.396C150.336 47.7293 150.794 47.2111 151.383 46.8413C151.971 46.4715 152.628 46.2866 153.352 46.2866C154.503 46.2866 155.391 46.6538 156.016 47.3882C156.646 48.1226 156.961 49.1616 156.961 50.5054V51.271H151.438C151.495 51.9689 151.727 52.521 152.133 52.9272C152.544 53.3335 153.06 53.5366 153.68 53.5366C154.549 53.5366 155.258 53.1851 155.805 52.4819L156.828 53.4585C156.49 53.9637 156.036 54.3569 155.469 54.6382C154.906 54.9142 154.273 55.0522 153.57 55.0522ZM153.344 47.8101C152.823 47.8101 152.401 47.9924 152.078 48.3569C151.76 48.7215 151.557 49.2293 151.469 49.8804H155.086V49.7397C155.044 49.1043 154.875 48.6252 154.578 48.3022C154.281 47.9741 153.87 47.8101 153.344 47.8101ZM160.469 53.3804H164.969V54.896H158.109V53.6538L162.398 47.9741H158.188V46.4429H164.805V47.646L160.469 53.3804ZM173.453 52.4897L175.242 46.4429H177.203L174.273 54.896H172.625L169.672 46.4429H171.641L173.453 52.4897ZM177.914 50.5913C177.914 49.7632 178.078 49.0184 178.406 48.3569C178.734 47.6903 179.195 47.1799 179.789 46.8257C180.383 46.4663 181.065 46.2866 181.836 46.2866C182.977 46.2866 183.901 46.6538 184.609 47.3882C185.323 48.1226 185.708 49.0965 185.766 50.3101L185.773 50.7554C185.773 51.5887 185.612 52.3335 185.289 52.9897C184.971 53.646 184.513 54.1538 183.914 54.5132C183.32 54.8726 182.633 55.0522 181.852 55.0522C180.659 55.0522 179.703 54.6564 178.984 53.8647C178.271 53.0679 177.914 52.008 177.914 50.6851V50.5913ZM179.812 50.7554C179.812 51.6252 179.992 52.3075 180.352 52.8022C180.711 53.2918 181.211 53.5366 181.852 53.5366C182.492 53.5366 182.99 53.2866 183.344 52.7866C183.703 52.2866 183.883 51.5549 183.883 50.5913C183.883 49.7371 183.698 49.0601 183.328 48.5601C182.964 48.0601 182.466 47.8101 181.836 47.8101C181.216 47.8101 180.724 48.0575 180.359 48.5522C179.995 49.0418 179.812 49.7762 179.812 50.7554ZM189.758 44.3882V46.4429H191.25V47.8491H189.758V52.5679C189.758 52.8908 189.82 53.1252 189.945 53.271C190.076 53.4116 190.305 53.4819 190.633 53.4819C190.852 53.4819 191.073 53.4559 191.297 53.4038V54.8726C190.865 54.9924 190.448 55.0522 190.047 55.0522C188.589 55.0522 187.859 54.2476 187.859 52.6382V47.8491H186.469V46.4429H187.859V44.3882H189.758ZM197.133 48.1772C196.883 48.1356 196.625 48.1147 196.359 48.1147C195.49 48.1147 194.904 48.4481 194.602 49.1147V54.896H192.703V46.4429H194.516L194.562 47.3882C195.021 46.6538 195.656 46.2866 196.469 46.2866C196.74 46.2866 196.964 46.3231 197.141 46.396L197.133 48.1772ZM201.898 55.0522C200.695 55.0522 199.719 54.6746 198.969 53.9194C198.224 53.159 197.852 52.1486 197.852 50.8882V50.6538C197.852 49.8101 198.013 49.0575 198.336 48.396C198.664 47.7293 199.122 47.2111 199.711 46.8413C200.299 46.4715 200.956 46.2866 201.68 46.2866C202.831 46.2866 203.719 46.6538 204.344 47.3882C204.974 48.1226 205.289 49.1616 205.289 50.5054V51.271H199.766C199.823 51.9689 200.055 52.521 200.461 52.9272C200.872 53.3335 201.388 53.5366 202.008 53.5366C202.878 53.5366 203.586 53.1851 204.133 52.4819L205.156 53.4585C204.818 53.9637 204.365 54.3569 203.797 54.6382C203.234 54.9142 202.602 55.0522 201.898 55.0522ZM201.672 47.8101C201.151 47.8101 200.729 47.9924 200.406 48.3569C200.089 48.7215 199.885 49.2293 199.797 49.8804H203.414V49.7397C203.372 49.1043 203.203 48.6252 202.906 48.3022C202.609 47.9741 202.198 47.8101 201.672 47.8101ZM212.539 46.4429L212.594 47.3257C213.188 46.633 214 46.2866 215.031 46.2866C216.161 46.2866 216.935 46.7189 217.352 47.5835C217.966 46.7189 218.831 46.2866 219.945 46.2866C220.878 46.2866 221.57 46.5444 222.023 47.0601C222.482 47.5757 222.716 48.3361 222.727 49.3413V54.896H220.828V49.396C220.828 48.8595 220.711 48.4663 220.477 48.2163C220.242 47.9663 219.854 47.8413 219.312 47.8413C218.88 47.8413 218.526 47.9585 218.25 48.1929C217.979 48.422 217.789 48.7241 217.68 49.0991L217.688 54.896H215.789V49.3335C215.763 48.3387 215.255 47.8413 214.266 47.8413C213.505 47.8413 212.966 48.1512 212.648 48.771V54.896H210.75V46.4429H212.539ZM228.398 55.0522C227.195 55.0522 226.219 54.6746 225.469 53.9194C224.724 53.159 224.352 52.1486 224.352 50.8882V50.6538C224.352 49.8101 224.513 49.0575 224.836 48.396C225.164 47.7293 225.622 47.2111 226.211 46.8413C226.799 46.4715 227.456 46.2866 228.18 46.2866C229.331 46.2866 230.219 46.6538 230.844 47.3882C231.474 48.1226 231.789 49.1616 231.789 50.5054V51.271H226.266C226.323 51.9689 226.555 52.521 226.961 52.9272C227.372 53.3335 227.888 53.5366 228.508 53.5366C229.378 53.5366 230.086 53.1851 230.633 52.4819L231.656 53.4585C231.318 53.9637 230.865 54.3569 230.297 54.6382C229.734 54.9142 229.102 55.0522 228.398 55.0522ZM228.172 47.8101C227.651 47.8101 227.229 47.9924 226.906 48.3569C226.589 48.7215 226.385 49.2293 226.297 49.8804H229.914V49.7397C229.872 49.1043 229.703 48.6252 229.406 48.3022C229.109 47.9741 228.698 47.8101 228.172 47.8101ZM235.031 46.4429L235.086 47.4194C235.711 46.6642 236.531 46.2866 237.547 46.2866C239.307 46.2866 240.203 47.2944 240.234 49.3101V54.896H238.336V49.4194C238.336 48.883 238.219 48.4871 237.984 48.2319C237.755 47.9715 237.378 47.8413 236.852 47.8413C236.086 47.8413 235.516 48.1877 235.141 48.8804V54.896H233.242V46.4429H235.031ZM247.297 54.0679C246.74 54.7241 245.948 55.0522 244.922 55.0522C244.005 55.0522 243.31 54.784 242.836 54.2476C242.367 53.7111 242.133 52.9351 242.133 51.9194V46.4429H244.031V51.896C244.031 52.9689 244.477 53.5054 245.367 53.5054C246.289 53.5054 246.911 53.1746 247.234 52.5132V46.4429H249.133V54.896H247.344L247.297 54.0679Z" fill="black"/>
<circle cx="15" cy="50.1652" r="12" fill="#9356DC"/>
<path d="M18.5341 56.256H11.7548V55.0996L15.1133 51.4364C15.598 50.8963 15.9419 50.4461 16.1451 50.0861C16.3528 49.7214 16.4567 49.3567 16.4567 48.992C16.4567 48.5118 16.3205 48.1241 16.0481 47.8286C15.7804 47.5331 15.418 47.3854 14.9609 47.3854C14.4162 47.3854 13.9938 47.5516 13.6937 47.884C13.3936 48.2164 13.2436 48.6711 13.2436 49.2482H11.5609C11.5609 48.6342 11.6994 48.0825 11.9764 47.5932C12.258 47.0992 12.6573 46.716 13.1744 46.4437C13.696 46.1713 14.2962 46.0351 14.9748 46.0351C15.9535 46.0351 16.7244 46.2821 17.2876 46.776C17.8555 47.2654 18.1394 47.944 18.1394 48.8119C18.1394 49.3151 17.9963 49.8437 17.7101 50.3977C17.4284 50.947 16.9645 51.5726 16.3182 52.2743L13.853 54.9126H18.5341V56.256Z" fill="#F7F7F7"/>
<path d="M51.5 39.2096C51.2033 39.2096 50.9133 39.3173 50.6666 39.5192C50.42 39.7211 50.2277 40.008 50.1142 40.3437C50.0006 40.6794 49.9709 41.0488 50.0288 41.4052C50.0867 41.7616 50.2296 42.0889 50.4393 42.3459C50.6491 42.6028 50.9164 42.7778 51.2074 42.8487C51.4983 42.9195 51.7999 42.8832 52.074 42.7441C52.3481 42.6051 52.5824 42.3696 52.7472 42.0675C52.912 41.7653 53 41.4101 53 41.0468C53 40.5595 52.842 40.0922 52.5607 39.7477C52.2794 39.4032 51.8978 39.2096 51.5 39.2096ZM51.5 45.3335C51.2033 45.3335 50.9133 45.4413 50.6666 45.6431C50.42 45.845 50.2277 46.1319 50.1142 46.4676C50.0006 46.8034 49.9709 47.1727 50.0288 47.5291C50.0867 47.8855 50.2296 48.2129 50.4393 48.4698C50.6491 48.7267 50.9164 48.9017 51.2074 48.9726C51.4983 49.0435 51.7999 49.0071 52.074 48.868C52.3481 48.729 52.5824 48.4935 52.7472 48.1914C52.912 47.8893 53 47.5341 53 47.1707C53 46.6835 52.842 46.2162 52.5607 45.8716C52.2794 45.5271 51.8978 45.3335 51.5 45.3335ZM51.5 51.4575C51.2033 51.4575 50.9133 51.5652 50.6666 51.7671C50.42 51.969 50.2277 52.2559 50.1142 52.5916C50.0006 52.9273 49.9709 53.2967 50.0288 53.6531C50.0867 54.0094 50.2296 54.3368 50.4393 54.5937C50.6491 54.8507 50.9164 55.0256 51.2074 55.0965C51.4983 55.1674 51.7999 55.131 52.074 54.992C52.3481 54.8529 52.5824 54.6174 52.7472 54.3153C52.912 54.0132 53 53.658 53 53.2946C53 52.8074 52.842 52.3401 52.5607 51.9956C52.2794 51.651 51.8978 51.4575 51.5 51.4575ZM65.5 52.0699H55.5C55.3674 52.0699 55.2402 52.1344 55.1464 52.2492C55.0527 52.3641 55 52.5198 55 52.6822V53.907C55 54.0695 55.0527 54.2252 55.1464 54.3401C55.2402 54.4549 55.3674 54.5194 55.5 54.5194H65.5C65.6326 54.5194 65.7598 54.4549 65.8536 54.3401C65.9473 54.2252 66 54.0695 66 53.907V52.6822C66 52.5198 65.9473 52.3641 65.8536 52.2492C65.7598 52.1344 65.6326 52.0699 65.5 52.0699ZM65.5 39.822H55.5C55.3674 39.822 55.2402 39.8865 55.1464 40.0014C55.0527 40.1162 55 40.272 55 40.4344V41.6592C55 41.8216 55.0527 41.9773 55.1464 42.0922C55.2402 42.207 55.3674 42.2716 55.5 42.2716H65.5C65.6326 42.2716 65.7598 42.207 65.8536 42.0922C65.9473 41.9773 66 41.8216 66 41.6592V40.4344C66 40.272 65.9473 40.1162 65.8536 40.0014C65.7598 39.8865 65.6326 39.822 65.5 39.822ZM65.5 45.9459H55.5C55.3674 45.9459 55.2402 46.0104 55.1464 46.1253C55.0527 46.2401 55 46.3959 55 46.5583V47.7831C55 47.9455 55.0527 48.1013 55.1464 48.2161C55.2402 48.331 55.3674 48.3955 55.5 48.3955H65.5C65.6326 48.3955 65.7598 48.331 65.8536 48.2161C65.9473 48.1013 66 47.9455 66 47.7831V46.5583C66 46.3959 65.9473 46.2401 65.8536 46.1253C65.7598 46.0104 65.6326 45.9459 65.5 45.9459Z" fill="#7E7E7E"/>
<defs>
<filter id="filter0_d_25368_612" x="0.514404" y="0.302734" width="352.486" height="102.379" filterUnits="userSpaceOnUse" color-interpolation-filters="sRGB">
<feFlood flood-opacity="0" result="BackgroundImageFix"/>
<feColorMatrix in="SourceAlpha" type="matrix" values="0 0 0 0 0 0 0 0 0 0 0 0 0 0 0 0 0 0 127 0" result="hardAlpha"/>
<feOffset dy="4"/>
<feGaussianBlur stdDeviation="7.5"/>
<feColorMatrix type="matrix" values="0 0 0 0 0 0 0 0 0 0 0 0 0 0 0 0 0 0 0.15 0"/>
<feBlend mode="normal" in2="BackgroundImageFix" result="effect1_dropShadow_25368_612"/>
<feBlend mode="normal" in="SourceGraphic" in2="effect1_dropShadow_25368_612" result="shape"/>
</filter>
</defs>
</svg>
