<svg width="353" height="103" viewBox="0 0 353 103" fill="none" xmlns="http://www.w3.org/2000/svg">
<g filter="url(#filter0_d_25368_605)">
<rect x="15.5144" y="11.6208" width="322.486" height="72.3792" rx="20" fill="#F7F7F7"/>
</g>
<path d="M90.1562 56.2141V44.8391H93.5156C94.5208 44.8391 95.4115 45.0631 96.1875 45.511C96.9688 45.9589 97.5729 46.5943 98 47.4172C98.4271 48.2402 98.6406 49.1829 98.6406 50.2454V50.8157C98.6406 51.8938 98.4245 52.8417 97.9922 53.6594C97.5651 54.4771 96.9531 55.1073 96.1562 55.55C95.3646 55.9928 94.4557 56.2141 93.4297 56.2141H90.1562ZM92.1328 46.4329V54.636H93.4219C94.4583 54.636 95.2526 54.3131 95.8047 53.6672C96.362 53.0162 96.6458 52.0839 96.6562 50.8704V50.2375C96.6562 49.0032 96.388 48.0605 95.8516 47.4094C95.3151 46.7584 94.5365 46.4329 93.5156 46.4329H92.1328ZM104.148 56.3704C102.945 56.3704 101.969 55.9928 101.219 55.2375C100.474 54.4771 100.102 53.4667 100.102 52.2063V51.9719C100.102 51.1282 100.263 50.3756 100.586 49.7141C100.914 49.0474 101.372 48.5292 101.961 48.1594C102.549 47.7896 103.206 47.6047 103.93 47.6047C105.081 47.6047 105.969 47.9719 106.594 48.7063C107.224 49.4407 107.539 50.4797 107.539 51.8235V52.5891H102.016C102.073 53.287 102.305 53.8391 102.711 54.2454C103.122 54.6516 103.638 54.8547 104.258 54.8547C105.128 54.8547 105.836 54.5032 106.383 53.8L107.406 54.7766C107.068 55.2818 106.615 55.675 106.047 55.9563C105.484 56.2323 104.852 56.3704 104.148 56.3704ZM103.922 49.1282C103.401 49.1282 102.979 49.3105 102.656 49.675C102.339 50.0396 102.135 50.5474 102.047 51.1985H105.664V51.0579C105.622 50.4224 105.453 49.9433 105.156 49.6204C104.859 49.2922 104.448 49.1282 103.922 49.1282ZM104.352 44.2141H106.516L104.352 46.5813H102.828L104.352 44.2141ZM108.688 51.925C108.688 50.6125 108.995 49.5657 109.609 48.7844C110.229 47.998 111.049 47.6047 112.07 47.6047C113.034 47.6047 113.792 47.9407 114.344 48.6125L114.43 47.761H116.141V55.9563C116.141 57.0657 115.794 57.9407 115.102 58.5813C114.414 59.2219 113.484 59.5422 112.312 59.5422C111.693 59.5422 111.086 59.412 110.492 59.1516C109.904 58.8964 109.456 58.5605 109.148 58.1438L110.047 57.0032C110.63 57.6959 111.349 58.0422 112.203 58.0422C112.833 58.0422 113.331 57.8704 113.695 57.5266C114.06 57.1881 114.242 56.6881 114.242 56.0266V55.4563C113.695 56.0657 112.966 56.3704 112.055 56.3704C111.065 56.3704 110.255 55.9771 109.625 55.1907C109 54.4042 108.688 53.3157 108.688 51.925ZM110.578 52.0891C110.578 52.9381 110.75 53.6073 111.094 54.0969C111.443 54.5813 111.924 54.8235 112.539 54.8235C113.305 54.8235 113.872 54.4954 114.242 53.8391V50.1204C113.883 49.4797 113.32 49.1594 112.555 49.1594C111.93 49.1594 111.443 49.4068 111.094 49.9016C110.75 50.3964 110.578 51.1256 110.578 52.0891ZM123.219 55.386C122.661 56.0422 121.87 56.3704 120.844 56.3704C119.927 56.3704 119.232 56.1021 118.758 55.5657C118.289 55.0292 118.055 54.2532 118.055 53.2375V47.761H119.953V53.2141C119.953 54.287 120.398 54.8235 121.289 54.8235C122.211 54.8235 122.833 54.4928 123.156 53.8313V47.761H125.055V56.2141H123.266L123.219 55.386ZM131.727 53.9172C131.727 53.5787 131.586 53.3209 131.305 53.1438C131.029 52.9667 130.568 52.8105 129.922 52.675C129.276 52.5396 128.737 52.3678 128.305 52.1594C127.357 51.7011 126.883 51.037 126.883 50.1672C126.883 49.4381 127.19 48.8287 127.805 48.3391C128.419 47.8495 129.201 47.6047 130.148 47.6047C131.159 47.6047 131.974 47.8547 132.594 48.3547C133.219 48.8547 133.531 49.5032 133.531 50.3H131.633C131.633 49.9355 131.497 49.6334 131.227 49.3938C130.956 49.149 130.596 49.0266 130.148 49.0266C129.732 49.0266 129.391 49.123 129.125 49.3157C128.865 49.5084 128.734 49.7662 128.734 50.0891C128.734 50.3808 128.857 50.6073 129.102 50.7688C129.346 50.9303 129.841 51.0943 130.586 51.261C131.331 51.4224 131.914 51.6178 132.336 51.8469C132.763 52.0709 133.078 52.3417 133.281 52.6594C133.49 52.9771 133.594 53.3625 133.594 53.8157C133.594 54.5761 133.279 55.1933 132.648 55.6672C132.018 56.136 131.193 56.3704 130.172 56.3704C129.479 56.3704 128.862 56.2454 128.32 55.9954C127.779 55.7454 127.357 55.4016 127.055 54.9641C126.753 54.5266 126.602 54.0553 126.602 53.55H128.445C128.471 53.998 128.641 54.3443 128.953 54.5891C129.266 54.8287 129.68 54.9485 130.195 54.9485C130.695 54.9485 131.076 54.8547 131.336 54.6672C131.596 54.4745 131.727 54.2245 131.727 53.9172ZM137.633 45.7063V47.761H139.125V49.1672H137.633V53.886C137.633 54.2089 137.695 54.4433 137.82 54.5891C137.951 54.7297 138.18 54.8 138.508 54.8C138.727 54.8 138.948 54.774 139.172 54.7219V56.1907C138.74 56.3105 138.323 56.3704 137.922 56.3704C136.464 56.3704 135.734 55.5657 135.734 53.9563V49.1672H134.344V47.761H135.734V45.7063H137.633ZM144.305 56.3704C143.102 56.3704 142.125 55.9928 141.375 55.2375C140.63 54.4771 140.258 53.4667 140.258 52.2063V51.9719C140.258 51.1282 140.419 50.3756 140.742 49.7141C141.07 49.0474 141.529 48.5292 142.117 48.1594C142.706 47.7896 143.362 47.6047 144.086 47.6047C145.237 47.6047 146.125 47.9719 146.75 48.7063C147.38 49.4407 147.695 50.4797 147.695 51.8235V52.5891H142.172C142.229 53.287 142.461 53.8391 142.867 54.2454C143.279 54.6516 143.794 54.8547 144.414 54.8547C145.284 54.8547 145.992 54.5032 146.539 53.8L147.562 54.7766C147.224 55.2818 146.771 55.675 146.203 55.9563C145.641 56.2323 145.008 56.3704 144.305 56.3704ZM144.078 49.1282C143.557 49.1282 143.135 49.3105 142.812 49.675C142.495 50.0396 142.292 50.5474 142.203 51.1985H145.82V51.0579C145.779 50.4224 145.609 49.9433 145.312 49.6204C145.016 49.2922 144.604 49.1282 144.078 49.1282ZM151.203 54.6985H155.703V56.2141H148.844V54.9719L153.133 49.2922H148.922V47.761H155.539V48.9641L151.203 54.6985ZM166.258 56.2141C166.174 56.0527 166.102 55.7896 166.039 55.425C165.435 56.0553 164.695 56.3704 163.82 56.3704C162.971 56.3704 162.279 56.1282 161.742 55.6438C161.206 55.1594 160.938 54.5605 160.938 53.8469C160.938 52.9459 161.271 52.2558 161.938 51.7766C162.609 51.2922 163.568 51.05 164.812 51.05H165.977V50.4954C165.977 50.0579 165.854 49.7089 165.609 49.4485C165.365 49.1829 164.992 49.05 164.492 49.05C164.06 49.05 163.706 49.1594 163.43 49.3782C163.154 49.5917 163.016 49.8652 163.016 50.1985H161.117C161.117 49.7349 161.271 49.3027 161.578 48.9016C161.885 48.4954 162.302 48.1777 162.828 47.9485C163.359 47.7193 163.951 47.6047 164.602 47.6047C165.591 47.6047 166.38 47.8547 166.969 48.3547C167.557 48.8495 167.859 49.5474 167.875 50.4485V54.261C167.875 55.0214 167.982 55.6282 168.195 56.0813V56.2141H166.258ZM164.172 54.8469C164.547 54.8469 164.898 54.7558 165.227 54.5735C165.56 54.3912 165.81 54.1464 165.977 53.8391V52.2454H164.953C164.25 52.2454 163.721 52.3678 163.367 52.6125C163.013 52.8573 162.836 53.2037 162.836 53.6516C162.836 54.0162 162.956 54.3079 163.195 54.5266C163.44 54.7402 163.766 54.8469 164.172 54.8469ZM174.984 55.386C174.427 56.0422 173.635 56.3704 172.609 56.3704C171.693 56.3704 170.997 56.1021 170.523 55.5657C170.055 55.0292 169.82 54.2532 169.82 53.2375V47.761H171.719V53.2141C171.719 54.287 172.164 54.8235 173.055 54.8235C173.977 54.8235 174.599 54.4928 174.922 53.8313V47.761H176.82V56.2141H175.031L174.984 55.386ZM187.164 49.4954C186.914 49.4537 186.656 49.4329 186.391 49.4329C185.521 49.4329 184.935 49.7662 184.633 50.4329V56.2141H182.734V47.761H184.547L184.594 48.7063C185.052 47.9719 185.688 47.6047 186.5 47.6047C186.771 47.6047 186.995 47.6412 187.172 47.7141L187.164 49.4954ZM191.93 56.3704C190.727 56.3704 189.75 55.9928 189 55.2375C188.255 54.4771 187.883 53.4667 187.883 52.2063V51.9719C187.883 51.1282 188.044 50.3756 188.367 49.7141C188.695 49.0474 189.154 48.5292 189.742 48.1594C190.331 47.7896 190.987 47.6047 191.711 47.6047C192.862 47.6047 193.75 47.9719 194.375 48.7063C195.005 49.4407 195.32 50.4797 195.32 51.8235V52.5891H189.797C189.854 53.287 190.086 53.8391 190.492 54.2454C190.904 54.6516 191.419 54.8547 192.039 54.8547C192.909 54.8547 193.617 54.5032 194.164 53.8L195.188 54.7766C194.849 55.2818 194.396 55.675 193.828 55.9563C193.266 56.2323 192.633 56.3704 191.93 56.3704ZM191.703 49.1282C191.182 49.1282 190.76 49.3105 190.438 49.675C190.12 50.0396 189.917 50.5474 189.828 51.1985H193.445V51.0579C193.404 50.4224 193.234 49.9433 192.938 49.6204C192.641 49.2922 192.229 49.1282 191.703 49.1282ZM201.539 53.9172C201.539 53.5787 201.398 53.3209 201.117 53.1438C200.841 52.9667 200.38 52.8105 199.734 52.675C199.089 52.5396 198.549 52.3678 198.117 52.1594C197.169 51.7011 196.695 51.037 196.695 50.1672C196.695 49.4381 197.003 48.8287 197.617 48.3391C198.232 47.8495 199.013 47.6047 199.961 47.6047C200.971 47.6047 201.786 47.8547 202.406 48.3547C203.031 48.8547 203.344 49.5032 203.344 50.3H201.445C201.445 49.9355 201.31 49.6334 201.039 49.3938C200.768 49.149 200.409 49.0266 199.961 49.0266C199.544 49.0266 199.203 49.123 198.938 49.3157C198.677 49.5084 198.547 49.7662 198.547 50.0891C198.547 50.3808 198.669 50.6073 198.914 50.7688C199.159 50.9303 199.654 51.0943 200.398 51.261C201.143 51.4224 201.727 51.6178 202.148 51.8469C202.576 52.0709 202.891 52.3417 203.094 52.6594C203.302 52.9771 203.406 53.3625 203.406 53.8157C203.406 54.5761 203.091 55.1933 202.461 55.6672C201.831 56.136 201.005 56.3704 199.984 56.3704C199.292 56.3704 198.674 56.2454 198.133 55.9954C197.591 55.7454 197.169 55.4016 196.867 54.9641C196.565 54.5266 196.414 54.0553 196.414 53.55H198.258C198.284 53.998 198.453 54.3443 198.766 54.5891C199.078 54.8287 199.492 54.9485 200.008 54.9485C200.508 54.9485 200.888 54.8547 201.148 54.6672C201.409 54.4745 201.539 54.2245 201.539 53.9172ZM207.445 45.7063V47.761H208.938V49.1672H207.445V53.886C207.445 54.2089 207.508 54.4433 207.633 54.5891C207.763 54.7297 207.992 54.8 208.32 54.8C208.539 54.8 208.76 54.774 208.984 54.7219V56.1907C208.552 56.3105 208.135 56.3704 207.734 56.3704C206.276 56.3704 205.547 55.5657 205.547 53.9563V49.1672H204.156V47.761H205.547V45.7063H207.445ZM215.445 56.2141C215.362 56.0527 215.289 55.7896 215.227 55.425C214.622 56.0553 213.883 56.3704 213.008 56.3704C212.159 56.3704 211.466 56.1282 210.93 55.6438C210.393 55.1594 210.125 54.5605 210.125 53.8469C210.125 52.9459 210.458 52.2558 211.125 51.7766C211.797 51.2922 212.755 51.05 214 51.05H215.164V50.4954C215.164 50.0579 215.042 49.7089 214.797 49.4485C214.552 49.1829 214.18 49.05 213.68 49.05C213.247 49.05 212.893 49.1594 212.617 49.3782C212.341 49.5917 212.203 49.8652 212.203 50.1985H210.305C210.305 49.7349 210.458 49.3027 210.766 48.9016C211.073 48.4954 211.49 48.1777 212.016 47.9485C212.547 47.7193 213.138 47.6047 213.789 47.6047C214.779 47.6047 215.568 47.8547 216.156 48.3547C216.745 48.8495 217.047 49.5474 217.062 50.4485V54.261C217.062 55.0214 217.169 55.6282 217.383 56.0813V56.2141H215.445ZM213.359 54.8469C213.734 54.8469 214.086 54.7558 214.414 54.5735C214.747 54.3912 214.997 54.1464 215.164 53.8391V52.2454H214.141C213.438 52.2454 212.909 52.3678 212.555 52.6125C212.201 52.8573 212.023 53.2037 212.023 53.6516C212.023 54.0162 212.143 54.3079 212.383 54.5266C212.628 54.7402 212.953 54.8469 213.359 54.8469ZM224.172 55.386C223.615 56.0422 222.823 56.3704 221.797 56.3704C220.88 56.3704 220.185 56.1021 219.711 55.5657C219.242 55.0292 219.008 54.2532 219.008 53.2375V47.761H220.906V53.2141C220.906 54.287 221.352 54.8235 222.242 54.8235C223.164 54.8235 223.786 54.4928 224.109 53.8313V47.761H226.008V56.2141H224.219L224.172 55.386ZM232.367 49.4954C232.117 49.4537 231.859 49.4329 231.594 49.4329C230.724 49.4329 230.138 49.7662 229.836 50.4329V56.2141H227.938V47.761H229.75L229.797 48.7063C230.255 47.9719 230.891 47.6047 231.703 47.6047C231.974 47.6047 232.198 47.6412 232.375 47.7141L232.367 49.4954ZM238.383 56.2141C238.299 56.0527 238.227 55.7896 238.164 55.425C237.56 56.0553 236.82 56.3704 235.945 56.3704C235.096 56.3704 234.404 56.1282 233.867 55.6438C233.331 55.1594 233.062 54.5605 233.062 53.8469C233.062 52.9459 233.396 52.2558 234.062 51.7766C234.734 51.2922 235.693 51.05 236.938 51.05H238.102V50.4954C238.102 50.0579 237.979 49.7089 237.734 49.4485C237.49 49.1829 237.117 49.05 236.617 49.05C236.185 49.05 235.831 49.1594 235.555 49.3782C235.279 49.5917 235.141 49.8652 235.141 50.1985H233.242C233.242 49.7349 233.396 49.3027 233.703 48.9016C234.01 48.4954 234.427 48.1777 234.953 47.9485C235.484 47.7193 236.076 47.6047 236.727 47.6047C237.716 47.6047 238.505 47.8547 239.094 48.3547C239.682 48.8495 239.984 49.5474 240 50.4485V54.261C240 55.0214 240.107 55.6282 240.32 56.0813V56.2141H238.383ZM236.297 54.8469C236.672 54.8469 237.023 54.7558 237.352 54.5735C237.685 54.3912 237.935 54.1464 238.102 53.8391V52.2454H237.078C236.375 52.2454 235.846 52.3678 235.492 52.6125C235.138 52.8573 234.961 53.2037 234.961 53.6516C234.961 54.0162 235.081 54.3079 235.32 54.5266C235.565 54.7402 235.891 54.8469 236.297 54.8469ZM243.75 47.761L243.805 48.7375C244.43 47.9823 245.25 47.6047 246.266 47.6047C248.026 47.6047 248.922 48.6125 248.953 50.6282V56.2141H247.055V50.7375C247.055 50.2011 246.938 49.8053 246.703 49.55C246.474 49.2896 246.096 49.1594 245.57 49.1594C244.805 49.1594 244.234 49.5058 243.859 50.1985V56.2141H241.961V47.761H243.75ZM253.273 45.7063V47.761H254.766V49.1672H253.273V53.886C253.273 54.2089 253.336 54.4433 253.461 54.5891C253.591 54.7297 253.82 54.8 254.148 54.8C254.367 54.8 254.589 54.774 254.812 54.7219V56.1907C254.38 56.3105 253.964 56.3704 253.562 56.3704C252.104 56.3704 251.375 55.5657 251.375 53.9563V49.1672H249.984V47.761H251.375V45.7063H253.273Z" fill="black"/>
<path d="M68.5914 42.4369L66.6947 38.8124C66.5252 38.487 66.2242 38.2876 65.9027 38.2876H54.0961C53.7747 38.2876 53.4737 38.487 53.3041 38.8124L51.4075 42.4369C50.4285 44.3086 51.2964 46.9115 53.1259 47.2089C53.2574 47.2299 53.3918 47.2404 53.5263 47.2404C54.3913 47.2404 55.157 46.7855 55.683 46.0823C56.209 46.7855 56.9776 47.2404 57.8398 47.2404C58.7048 47.2404 59.4705 46.7855 59.9965 46.0823C60.5225 46.7855 61.2911 47.2404 62.1533 47.2404C63.0183 47.2404 63.784 46.7855 64.31 46.0823C64.839 46.7855 65.6046 47.2404 66.4668 47.2404C66.6041 47.2404 66.7356 47.2299 66.8671 47.2089C68.7024 46.915 69.5733 44.3121 68.5914 42.4369ZM66.4726 48.3634C66.1804 48.3634 65.891 48.3109 65.6105 48.2304V51.722H54.3884V48.2304C54.1078 48.3074 53.8185 48.3634 53.5263 48.3634C53.3509 48.3634 53.1726 48.3494 53.0002 48.3214C52.8366 48.2934 52.6758 48.2479 52.5209 48.1955V55.0806C52.5209 55.6998 52.9388 56.2001 53.4561 56.2001H66.5486C67.0659 56.2001 67.4838 55.6998 67.4838 55.0806V48.1955C67.326 48.2514 67.1681 48.2969 67.0045 48.3214C66.8262 48.3494 66.6509 48.3634 66.4726 48.3634Z" fill="#9356DC"/>
<circle cx="15" cy="50.4832" r="12" fill="#9356DC"/>
<path d="M13.7006 50.7644H14.7255C15.2425 50.7598 15.6511 50.6259 15.9512 50.3627C16.2559 50.0996 16.4082 49.7187 16.4082 49.2202C16.4082 48.7401 16.2813 48.3684 16.0273 48.1053C15.7781 47.8375 15.3949 47.7037 14.8778 47.7037C14.4254 47.7037 14.0538 47.8352 13.763 48.0984C13.4721 48.3569 13.3267 48.6962 13.3267 49.1163H11.644C11.644 48.5993 11.7802 48.1284 12.0526 47.7037C12.3295 47.2789 12.7127 46.9489 13.2021 46.7134C13.696 46.4734 14.2477 46.3533 14.8571 46.3533C15.8635 46.3533 16.6529 46.6072 17.2253 47.1151C17.8024 47.6183 18.0909 48.32 18.0909 49.2202C18.0909 49.6726 17.9455 50.0996 17.6547 50.5012C17.3684 50.8983 16.9968 51.1983 16.5398 51.4015C17.0938 51.5907 17.5138 51.8885 17.8001 52.2947C18.0909 52.701 18.2363 53.1857 18.2363 53.7489C18.2363 54.6538 17.9247 55.3739 17.3015 55.9094C16.6829 56.445 15.8681 56.7127 14.8571 56.7127C13.8876 56.7127 13.0936 56.4542 12.475 55.9371C11.8564 55.4201 11.5471 54.7322 11.5471 53.8736H13.2298C13.2298 54.3168 13.3775 54.6768 13.6729 54.9538C13.973 55.2308 14.3746 55.3693 14.8778 55.3693C15.3995 55.3693 15.8104 55.2308 16.1104 54.9538C16.4105 54.6768 16.5605 54.2752 16.5605 53.7489C16.5605 53.218 16.4036 52.8095 16.0897 52.5233C15.7757 52.237 15.3095 52.0939 14.6909 52.0939H13.7006V50.7644Z" fill="white"/>
<defs>
<filter id="filter0_d_25368_605" x="0.514404" y="0.62085" width="352.486" height="102.379" filterUnits="userSpaceOnUse" color-interpolation-filters="sRGB">
<feFlood flood-opacity="0" result="BackgroundImageFix"/>
<feColorMatrix in="SourceAlpha" type="matrix" values="0 0 0 0 0 0 0 0 0 0 0 0 0 0 0 0 0 0 127 0" result="hardAlpha"/>
<feOffset dy="4"/>
<feGaussianBlur stdDeviation="7.5"/>
<feColorMatrix type="matrix" values="0 0 0 0 0 0 0 0 0 0 0 0 0 0 0 0 0 0 0.15 0"/>
<feBlend mode="normal" in2="BackgroundImageFix" result="effect1_dropShadow_25368_605"/>
<feBlend mode="normal" in="SourceGraphic" in2="effect1_dropShadow_25368_605" result="shape"/>
</filter>
</defs>
</svg>
