<svg width="353" height="103" viewBox="0 0 353 103" fill="none" xmlns="http://www.w3.org/2000/svg">
<g filter="url(#filter0_d_25368_619)">
<rect x="15.5144" y="11" width="322.486" height="72.3792" rx="20" fill="#F7F7F7"/>
</g>
<path d="M60.0487 35.5431H50.9356C49.8575 35.5431 48.9828 36.3789 48.9828 37.409V53.58C48.9828 54.6101 49.8575 55.4459 50.9356 55.4459H60.0487C61.1268 55.4459 62.0015 54.6101 62.0015 53.58V37.409C62.0015 36.3789 61.1268 35.5431 60.0487 35.5431ZM55.4922 54.202C54.7721 54.202 54.1903 53.6461 54.1903 52.958C54.1903 52.27 54.7721 51.7141 55.4922 51.7141C56.2123 51.7141 56.794 52.27 56.794 52.958C56.794 53.6461 56.2123 54.202 55.4922 54.202ZM60.0487 50.0037C60.0487 50.2603 59.829 50.4702 59.5605 50.4702H51.4238C51.1553 50.4702 50.9356 50.2603 50.9356 50.0037V37.8754C50.9356 37.6189 51.1553 37.409 51.4238 37.409H59.5605C59.829 37.409 60.0487 37.6189 60.0487 37.8754V50.0037Z" fill="#7E7E7E"/>
<path d="M98.8359 50.8901C98.7214 52.1037 98.2734 53.0516 97.4922 53.7339C96.7109 54.411 95.6719 54.7495 94.375 54.7495C93.4688 54.7495 92.6693 54.536 91.9766 54.1089C91.2891 53.6766 90.7578 53.0646 90.3828 52.2729C90.0078 51.4813 89.8125 50.562 89.7969 49.5151V48.4526C89.7969 47.3797 89.987 46.4344 90.3672 45.6167C90.7474 44.799 91.2917 44.1688 92 43.7261C92.7135 43.2834 93.5365 43.062 94.4688 43.062C95.724 43.062 96.7344 43.4032 97.5 44.0854C98.2656 44.7677 98.7109 45.7313 98.8359 46.9761H96.8672C96.7734 46.1584 96.5339 45.5698 96.1484 45.2104C95.7682 44.8459 95.2083 44.6636 94.4688 44.6636C93.6094 44.6636 92.9479 44.9787 92.4844 45.6089C92.026 46.2339 91.7917 47.1532 91.7812 48.3667V49.3745C91.7812 50.6037 92 51.5412 92.4375 52.187C92.8802 52.8328 93.526 53.1558 94.375 53.1558C95.151 53.1558 95.7344 52.9813 96.125 52.6323C96.5156 52.2834 96.763 51.7026 96.8672 50.8901H98.8359ZM102.297 47.062C102.917 46.3433 103.701 45.9839 104.648 45.9839C106.451 45.9839 107.365 47.0125 107.391 49.0698V54.5933H105.492V49.1401C105.492 48.5568 105.365 48.1453 105.109 47.9058C104.859 47.661 104.49 47.5386 104 47.5386C103.24 47.5386 102.672 47.8771 102.297 48.5542V54.5933H100.398V42.5933H102.297V47.062ZM108.961 50.2886C108.961 49.4604 109.125 48.7157 109.453 48.0542C109.781 47.3875 110.242 46.8771 110.836 46.5229C111.43 46.1636 112.112 45.9839 112.883 45.9839C114.023 45.9839 114.948 46.3511 115.656 47.0854C116.37 47.8198 116.755 48.7938 116.812 50.0073L116.82 50.4526C116.82 51.286 116.659 52.0308 116.336 52.687C116.018 53.3433 115.56 53.8511 114.961 54.2104C114.367 54.5698 113.68 54.7495 112.898 54.7495C111.706 54.7495 110.75 54.3537 110.031 53.562C109.318 52.7651 108.961 51.7052 108.961 50.3823V50.2886ZM110.859 50.4526C110.859 51.3224 111.039 52.0047 111.398 52.4995C111.758 52.9891 112.258 53.2339 112.898 53.2339C113.539 53.2339 114.036 52.9839 114.391 52.4839C114.75 51.9839 114.93 51.2521 114.93 50.2886C114.93 49.4344 114.745 48.7573 114.375 48.2573C114.01 47.7573 113.513 47.5073 112.883 47.5073C112.263 47.5073 111.771 47.7547 111.406 48.2495C111.042 48.7391 110.859 49.4735 110.859 50.4526ZM120.445 54.5933H118.547V46.1401H120.445V54.5933ZM118.43 43.9448C118.43 43.6532 118.521 43.411 118.703 43.2183C118.891 43.0256 119.156 42.9292 119.5 42.9292C119.844 42.9292 120.109 43.0256 120.297 43.2183C120.484 43.411 120.578 43.6532 120.578 43.9448C120.578 44.2313 120.484 44.4709 120.297 44.6636C120.109 44.8511 119.844 44.9448 119.5 44.9448C119.156 44.9448 118.891 44.8511 118.703 44.6636C118.521 44.4709 118.43 44.2313 118.43 43.9448ZM127.258 52.2964C127.258 51.9578 127.117 51.7 126.836 51.5229C126.56 51.3459 126.099 51.1896 125.453 51.0542C124.807 50.9188 124.268 50.7469 123.836 50.5386C122.888 50.0802 122.414 49.4162 122.414 48.5464C122.414 47.8172 122.721 47.2078 123.336 46.7183C123.951 46.2287 124.732 45.9839 125.68 45.9839C126.69 45.9839 127.505 46.2339 128.125 46.7339C128.75 47.2339 129.062 47.8823 129.062 48.6792H127.164C127.164 48.3146 127.029 48.0125 126.758 47.7729C126.487 47.5282 126.128 47.4058 125.68 47.4058C125.263 47.4058 124.922 47.5021 124.656 47.6948C124.396 47.8875 124.266 48.1453 124.266 48.4683C124.266 48.7599 124.388 48.9865 124.633 49.1479C124.878 49.3094 125.372 49.4735 126.117 49.6401C126.862 49.8016 127.445 49.9969 127.867 50.2261C128.294 50.45 128.609 50.7209 128.812 51.0386C129.021 51.3563 129.125 51.7417 129.125 52.1948C129.125 52.9552 128.81 53.5724 128.18 54.0464C127.549 54.5151 126.724 54.7495 125.703 54.7495C125.01 54.7495 124.393 54.6245 123.852 54.3745C123.31 54.1245 122.888 53.7808 122.586 53.3433C122.284 52.9058 122.133 52.4344 122.133 51.9292H123.977C124.003 52.3771 124.172 52.7235 124.484 52.9683C124.797 53.2078 125.211 53.3276 125.727 53.3276C126.227 53.3276 126.607 53.2339 126.867 53.0464C127.128 52.8537 127.258 52.6037 127.258 52.2964ZM132.805 54.5933H130.906V46.1401H132.805V54.5933ZM130.789 43.9448C130.789 43.6532 130.88 43.411 131.062 43.2183C131.25 43.0256 131.516 42.9292 131.859 42.9292C132.203 42.9292 132.469 43.0256 132.656 43.2183C132.844 43.411 132.938 43.6532 132.938 43.9448C132.938 44.2313 132.844 44.4709 132.656 44.6636C132.469 44.8511 132.203 44.9448 131.859 44.9448C131.516 44.9448 131.25 44.8511 131.062 44.6636C130.88 44.4709 130.789 44.2313 130.789 43.9448ZM139.617 52.2964C139.617 51.9578 139.477 51.7 139.195 51.5229C138.919 51.3459 138.458 51.1896 137.812 51.0542C137.167 50.9188 136.628 50.7469 136.195 50.5386C135.247 50.0802 134.773 49.4162 134.773 48.5464C134.773 47.8172 135.081 47.2078 135.695 46.7183C136.31 46.2287 137.091 45.9839 138.039 45.9839C139.049 45.9839 139.865 46.2339 140.484 46.7339C141.109 47.2339 141.422 47.8823 141.422 48.6792H139.523C139.523 48.3146 139.388 48.0125 139.117 47.7729C138.846 47.5282 138.487 47.4058 138.039 47.4058C137.622 47.4058 137.281 47.5021 137.016 47.6948C136.755 47.8875 136.625 48.1453 136.625 48.4683C136.625 48.7599 136.747 48.9865 136.992 49.1479C137.237 49.3094 137.732 49.4735 138.477 49.6401C139.221 49.8016 139.805 49.9969 140.227 50.2261C140.654 50.45 140.969 50.7209 141.172 51.0386C141.38 51.3563 141.484 51.7417 141.484 52.1948C141.484 52.9552 141.169 53.5724 140.539 54.0464C139.909 54.5151 139.083 54.7495 138.062 54.7495C137.37 54.7495 136.753 54.6245 136.211 54.3745C135.669 54.1245 135.247 53.7808 134.945 53.3433C134.643 52.9058 134.492 52.4344 134.492 51.9292H136.336C136.362 52.3771 136.531 52.7235 136.844 52.9683C137.156 53.2078 137.57 53.3276 138.086 53.3276C138.586 53.3276 138.966 53.2339 139.227 53.0464C139.487 52.8537 139.617 52.6037 139.617 52.2964ZM147.883 52.2964C147.883 51.9578 147.742 51.7 147.461 51.5229C147.185 51.3459 146.724 51.1896 146.078 51.0542C145.432 50.9188 144.893 50.7469 144.461 50.5386C143.513 50.0802 143.039 49.4162 143.039 48.5464C143.039 47.8172 143.346 47.2078 143.961 46.7183C144.576 46.2287 145.357 45.9839 146.305 45.9839C147.315 45.9839 148.13 46.2339 148.75 46.7339C149.375 47.2339 149.688 47.8823 149.688 48.6792H147.789C147.789 48.3146 147.654 48.0125 147.383 47.7729C147.112 47.5282 146.753 47.4058 146.305 47.4058C145.888 47.4058 145.547 47.5021 145.281 47.6948C145.021 47.8875 144.891 48.1453 144.891 48.4683C144.891 48.7599 145.013 48.9865 145.258 49.1479C145.503 49.3094 145.997 49.4735 146.742 49.6401C147.487 49.8016 148.07 49.9969 148.492 50.2261C148.919 50.45 149.234 50.7209 149.438 51.0386C149.646 51.3563 149.75 51.7417 149.75 52.1948C149.75 52.9552 149.435 53.5724 148.805 54.0464C148.174 54.5151 147.349 54.7495 146.328 54.7495C145.635 54.7495 145.018 54.6245 144.477 54.3745C143.935 54.1245 143.513 53.7808 143.211 53.3433C142.909 52.9058 142.758 52.4344 142.758 51.9292H144.602C144.628 52.3771 144.797 52.7235 145.109 52.9683C145.422 53.2078 145.836 53.3276 146.352 53.3276C146.852 53.3276 147.232 53.2339 147.492 53.0464C147.753 52.8537 147.883 52.6037 147.883 52.2964ZM155.133 54.7495C153.93 54.7495 152.953 54.3719 152.203 53.6167C151.458 52.8563 151.086 51.8459 151.086 50.5854V50.3511C151.086 49.5073 151.247 48.7547 151.57 48.0933C151.898 47.4266 152.357 46.9084 152.945 46.5386C153.534 46.1688 154.19 45.9839 154.914 45.9839C156.065 45.9839 156.953 46.3511 157.578 47.0854C158.208 47.8198 158.523 48.8589 158.523 50.2026V50.9683H153C153.057 51.6662 153.289 52.2183 153.695 52.6245C154.107 53.0308 154.622 53.2339 155.242 53.2339C156.112 53.2339 156.82 52.8823 157.367 52.1792L158.391 53.1558C158.052 53.661 157.599 54.0542 157.031 54.3354C156.469 54.6115 155.836 54.7495 155.133 54.7495ZM154.906 47.5073C154.385 47.5073 153.964 47.6896 153.641 48.0542C153.323 48.4188 153.12 48.9266 153.031 49.5776H156.648V49.437C156.607 48.8016 156.438 48.3224 156.141 47.9995C155.844 47.6714 155.432 47.5073 154.906 47.5073ZM162.031 53.0776H166.531V54.5933H159.672V53.3511L163.961 47.6714H159.75V46.1401H166.367V47.3433L162.031 53.0776ZM177.156 53.7651C176.599 54.4214 175.807 54.7495 174.781 54.7495C173.865 54.7495 173.169 54.4813 172.695 53.9448C172.227 53.4084 171.992 52.6323 171.992 51.6167V46.1401H173.891V51.5933C173.891 52.6662 174.336 53.2026 175.227 53.2026C176.148 53.2026 176.771 52.8719 177.094 52.2104V46.1401H178.992V54.5933H177.203L177.156 53.7651ZM182.688 46.1401L182.742 47.1167C183.367 46.3615 184.188 45.9839 185.203 45.9839C186.964 45.9839 187.859 46.9917 187.891 49.0073V54.5933H185.992V49.1167C185.992 48.5802 185.875 48.1844 185.641 47.9292C185.411 47.6688 185.034 47.5386 184.508 47.5386C183.742 47.5386 183.172 47.8849 182.797 48.5776V54.5933H180.898V46.1401H182.688ZM198.242 47.8745C197.992 47.8328 197.734 47.812 197.469 47.812C196.599 47.812 196.013 48.1453 195.711 48.812V54.5933H193.812V46.1401H195.625L195.672 47.0854C196.13 46.3511 196.766 45.9839 197.578 45.9839C197.849 45.9839 198.073 46.0203 198.25 46.0933L198.242 47.8745ZM203.008 54.7495C201.805 54.7495 200.828 54.3719 200.078 53.6167C199.333 52.8563 198.961 51.8459 198.961 50.5854V50.3511C198.961 49.5073 199.122 48.7547 199.445 48.0933C199.773 47.4266 200.232 46.9084 200.82 46.5386C201.409 46.1688 202.065 45.9839 202.789 45.9839C203.94 45.9839 204.828 46.3511 205.453 47.0854C206.083 47.8198 206.398 48.8589 206.398 50.2026V50.9683H200.875C200.932 51.6662 201.164 52.2183 201.57 52.6245C201.982 53.0308 202.497 53.2339 203.117 53.2339C203.987 53.2339 204.695 52.8823 205.242 52.1792L206.266 53.1558C205.927 53.661 205.474 54.0542 204.906 54.3354C204.344 54.6115 203.711 54.7495 203.008 54.7495ZM202.781 47.5073C202.26 47.5073 201.839 47.6896 201.516 48.0542C201.198 48.4188 200.995 48.9266 200.906 49.5776H204.523V49.437C204.482 48.8016 204.312 48.3224 204.016 47.9995C203.719 47.6714 203.307 47.5073 202.781 47.5073ZM212.617 52.2964C212.617 51.9578 212.477 51.7 212.195 51.5229C211.919 51.3459 211.458 51.1896 210.812 51.0542C210.167 50.9188 209.628 50.7469 209.195 50.5386C208.247 50.0802 207.773 49.4162 207.773 48.5464C207.773 47.8172 208.081 47.2078 208.695 46.7183C209.31 46.2287 210.091 45.9839 211.039 45.9839C212.049 45.9839 212.865 46.2339 213.484 46.7339C214.109 47.2339 214.422 47.8823 214.422 48.6792H212.523C212.523 48.3146 212.388 48.0125 212.117 47.7729C211.846 47.5282 211.487 47.4058 211.039 47.4058C210.622 47.4058 210.281 47.5021 210.016 47.6948C209.755 47.8875 209.625 48.1453 209.625 48.4683C209.625 48.7599 209.747 48.9865 209.992 49.1479C210.237 49.3094 210.732 49.4735 211.477 49.6401C212.221 49.8016 212.805 49.9969 213.227 50.2261C213.654 50.45 213.969 50.7209 214.172 51.0386C214.38 51.3563 214.484 51.7417 214.484 52.1948C214.484 52.9552 214.169 53.5724 213.539 54.0464C212.909 54.5151 212.083 54.7495 211.062 54.7495C210.37 54.7495 209.753 54.6245 209.211 54.3745C208.669 54.1245 208.247 53.7808 207.945 53.3433C207.643 52.9058 207.492 52.4344 207.492 51.9292H209.336C209.362 52.3771 209.531 52.7235 209.844 52.9683C210.156 53.2078 210.57 53.3276 211.086 53.3276C211.586 53.3276 211.966 53.2339 212.227 53.0464C212.487 52.8537 212.617 52.6037 212.617 52.2964ZM218.523 44.0854V46.1401H220.016V47.5464H218.523V52.2651C218.523 52.5881 218.586 52.8224 218.711 52.9683C218.841 53.1089 219.07 53.1792 219.398 53.1792C219.617 53.1792 219.839 53.1532 220.062 53.1011V54.5698C219.63 54.6896 219.214 54.7495 218.812 54.7495C217.354 54.7495 216.625 53.9448 216.625 52.3354V47.5464H215.234V46.1401H216.625V44.0854H218.523ZM226.523 54.5933C226.44 54.4318 226.367 54.1688 226.305 53.8042C225.701 54.4344 224.961 54.7495 224.086 54.7495C223.237 54.7495 222.544 54.5073 222.008 54.0229C221.471 53.5386 221.203 52.9396 221.203 52.2261C221.203 51.325 221.536 50.6349 222.203 50.1558C222.875 49.6714 223.833 49.4292 225.078 49.4292H226.242V48.8745C226.242 48.437 226.12 48.0881 225.875 47.8276C225.63 47.562 225.258 47.4292 224.758 47.4292C224.326 47.4292 223.971 47.5386 223.695 47.7573C223.419 47.9709 223.281 48.2443 223.281 48.5776H221.383C221.383 48.1141 221.536 47.6818 221.844 47.2808C222.151 46.8745 222.568 46.5568 223.094 46.3276C223.625 46.0985 224.216 45.9839 224.867 45.9839C225.857 45.9839 226.646 46.2339 227.234 46.7339C227.823 47.2287 228.125 47.9266 228.141 48.8276V52.6401C228.141 53.4006 228.247 54.0073 228.461 54.4604V54.5933H226.523ZM224.438 53.2261C224.812 53.2261 225.164 53.1349 225.492 52.9526C225.826 52.7703 226.076 52.5256 226.242 52.2183V50.6245H225.219C224.516 50.6245 223.987 50.7469 223.633 50.9917C223.279 51.2365 223.102 51.5828 223.102 52.0308C223.102 52.3953 223.221 52.687 223.461 52.9058C223.706 53.1193 224.031 53.2261 224.438 53.2261ZM235.25 53.7651C234.693 54.4214 233.901 54.7495 232.875 54.7495C231.958 54.7495 231.263 54.4813 230.789 53.9448C230.32 53.4084 230.086 52.6323 230.086 51.6167V46.1401H231.984V51.5933C231.984 52.6662 232.43 53.2026 233.32 53.2026C234.242 53.2026 234.865 52.8719 235.188 52.2104V46.1401H237.086V54.5933H235.297L235.25 53.7651ZM243.445 47.8745C243.195 47.8328 242.938 47.812 242.672 47.812C241.802 47.812 241.216 48.1453 240.914 48.812V54.5933H239.016V46.1401H240.828L240.875 47.0854C241.333 46.3511 241.969 45.9839 242.781 45.9839C243.052 45.9839 243.276 46.0203 243.453 46.0933L243.445 47.8745ZM249.461 54.5933C249.378 54.4318 249.305 54.1688 249.242 53.8042C248.638 54.4344 247.898 54.7495 247.023 54.7495C246.174 54.7495 245.482 54.5073 244.945 54.0229C244.409 53.5386 244.141 52.9396 244.141 52.2261C244.141 51.325 244.474 50.6349 245.141 50.1558C245.812 49.6714 246.771 49.4292 248.016 49.4292H249.18V48.8745C249.18 48.437 249.057 48.0881 248.812 47.8276C248.568 47.562 248.195 47.4292 247.695 47.4292C247.263 47.4292 246.909 47.5386 246.633 47.7573C246.357 47.9709 246.219 48.2443 246.219 48.5776H244.32C244.32 48.1141 244.474 47.6818 244.781 47.2808C245.089 46.8745 245.505 46.5568 246.031 46.3276C246.562 46.0985 247.154 45.9839 247.805 45.9839C248.794 45.9839 249.583 46.2339 250.172 46.7339C250.76 47.2287 251.062 47.9266 251.078 48.8276V52.6401C251.078 53.4006 251.185 54.0073 251.398 54.4604V54.5933H249.461ZM247.375 53.2261C247.75 53.2261 248.102 53.1349 248.43 52.9526C248.763 52.7703 249.013 52.5256 249.18 52.2183V50.6245H248.156C247.453 50.6245 246.924 50.7469 246.57 50.9917C246.216 51.2365 246.039 51.5828 246.039 52.0308C246.039 52.3953 246.159 52.687 246.398 52.9058C246.643 53.1193 246.969 53.2261 247.375 53.2261ZM254.828 46.1401L254.883 47.1167C255.508 46.3615 256.328 45.9839 257.344 45.9839C259.104 45.9839 260 46.9917 260.031 49.0073V54.5933H258.133V49.1167C258.133 48.5802 258.016 48.1844 257.781 47.9292C257.552 47.6688 257.174 47.5386 256.648 47.5386C255.883 47.5386 255.312 47.8849 254.938 48.5776V54.5933H253.039V46.1401H254.828ZM264.352 44.0854V46.1401H265.844V47.5464H264.352V52.2651C264.352 52.5881 264.414 52.8224 264.539 52.9683C264.669 53.1089 264.898 53.1792 265.227 53.1792C265.445 53.1792 265.667 53.1532 265.891 53.1011V54.5698C265.458 54.6896 265.042 54.7495 264.641 54.7495C263.182 54.7495 262.453 53.9448 262.453 52.3354V47.5464H261.062V46.1401H262.453V44.0854H264.352Z" fill="black"/>
<circle cx="15" cy="49.8624" r="12" fill="#9356DC"/>
<path d="M16.3113 55.9532H14.6355V47.8583L12.1634 48.7031V47.2835L16.0966 45.8362H16.3113V55.9532Z" fill="white"/>
<defs>
<filter id="filter0_d_25368_619" x="0.514404" y="0" width="352.486" height="102.379" filterUnits="userSpaceOnUse" color-interpolation-filters="sRGB">
<feFlood flood-opacity="0" result="BackgroundImageFix"/>
<feColorMatrix in="SourceAlpha" type="matrix" values="0 0 0 0 0 0 0 0 0 0 0 0 0 0 0 0 0 0 127 0" result="hardAlpha"/>
<feOffset dy="4"/>
<feGaussianBlur stdDeviation="7.5"/>
<feColorMatrix type="matrix" values="0 0 0 0 0 0 0 0 0 0 0 0 0 0 0 0 0 0 0.15 0"/>
<feBlend mode="normal" in2="BackgroundImageFix" result="effect1_dropShadow_25368_619"/>
<feBlend mode="normal" in="SourceGraphic" in2="effect1_dropShadow_25368_619" result="shape"/>
</filter>
</defs>
</svg>
